<svg width="1024" height="1024" viewBox="0 0 1024 1024" fill="none" xmlns="http://www.w3.org/2000/svg">
  <!-- Background -->
  <rect width="1024" height="1024" rx="240" fill="url(#gradientBackground)"/>

  <!-- Interior Design Theme: Floor Plan Outline -->
  <g stroke="white" stroke-width="10" stroke-linecap="round" stroke-linejoin="round">
    <rect x="280" y="280" width="464" height="464" rx="24"/>
    <line x1="280" y1="464" x2="744" y2="464"/>
    <line x1="464" y1="280" x2="464" y2="744"/>
    <line x1="464" y1="464" x2="744" y2="744"/>
  </g>

  <!-- Interior Design Theme: Chair Icon -->
  <g transform="translate(600, 320)">
    <rect x="0" y="0" width="60" height="30" rx="6" fill="white"/>
    <rect x="10" y="30" width="40" height="40" rx="6" fill="white"/>
    <line x1="10" y1="70" x2="0" y2="90" stroke="white" stroke-width="6"/>
    <line x1="50" y1="70" x2="60" y2="90" stroke="white" stroke-width="6"/>
  </g>

  <!-- Interior Design Theme: Lamp Icon -->
  <g transform="translate(360, 600)">
    <path d="M30 0 L0 40 H60 L30 0 Z" fill="white"/>
    <rect x="28" y="40" width="4" height="30" fill="white"/>
    <circle cx="30" cy="75" r="5" fill="white"/>
  </g>

  <defs>
    <linearGradient id="gradientBackground" x1="0" y1="0" x2="1024" y2="1024" gradientUnits="userSpaceOnUse">
      <stop stop-color="#0f172a"/>
      <stop offset="1" stop-color="#4c1d95"/>
    </linearGradient>
  </defs>
</svg>
